<svg width="25" height="25" viewBox="0 0 25 25" fill="none" xmlns="http://www.w3.org/2000/svg">
<rect width="25" height="25" fill="white"/>
<path d="M20.9444 11.5557H3.05556C2.47259 11.5557 2 12.0283 2 12.6112V12.7223C2 13.3053 2.47259 13.7779 3.05556 13.7779H20.9444C21.5274 13.7779 22 13.3053 22 12.7223V12.6112C22 12.0283 21.5274 11.5557 20.9444 11.5557Z" fill="#0078D4"/>
<path d="M20.9444 17.1113H3.05556C2.47259 17.1113 2 17.5839 2 18.1669V18.278C2 18.861 2.47259 19.3336 3.05556 19.3336H20.9444C21.5274 19.3336 22 18.861 22 18.278V18.1669C22 17.5839 21.5274 17.1113 20.9444 17.1113Z" fill="#0078D4"/>
<path d="M20.9444 6H3.05556C2.47259 6 2 6.47259 2 7.05556V7.16667C2 7.74963 2.47259 8.22222 3.05556 8.22222H20.9444C21.5274 8.22222 22 7.74963 22 7.16667V7.05556C22 6.47259 21.5274 6 20.9444 6Z" fill="#0078D4"/>
</svg>
